<?xml version="1.0" encoding="UTF-8"?>
<svg id="Calque_2" xmlns="http://www.w3.org/2000/svg" xmlns:xlink="http://www.w3.org/1999/xlink" viewBox="0 0 560 95">
  <defs>
    <style>
      .cls-1 {
        fill: #7fbe77;
      }
    </style>
  </defs>
  <g id="Calque_1-2" data-name="Calque_1">
    <path class="cls-1" d="M7.74,49.5S1.75,1.81,21.48,4.08s15.03,45.42,15.03,45.42H7.74Z"/>
    <path class="cls-1" d="M77.26,49.5S71.27,1.81,91,4.08s15.03,45.42,15.03,45.42h-28.78Z"/>
    <path class="cls-1" d="M151.26,49.5s-5.99-47.69,13.74-45.42,15.03,45.42,15.03,45.42h-28.78Z"/>
    <path class="cls-1" d="M220.26,49.5s-5.99-47.69,13.74-45.42,15.03,45.42,15.03,45.42h-28.78Z"/>
    <path class="cls-1" d="M287.26,49.5s-5.99-47.69,13.74-45.42,15.03,45.42,15.03,45.42h-28.78Z"/>
    <path class="cls-1" d="M353.26,49.5s-5.99-47.69,13.74-45.42,15.03,45.42,15.03,45.42h-28.78Z"/>
    <path class="cls-1" d="M416.26,45.5S410.27-2.19,430,.08s15.03,45.42,15.03,45.42h-28.78Z"/>
    <path class="cls-1" d="M485.26,45.5S479.27-2.19,499,.08s15.03,45.42,15.03,45.42h-28.78Z"/>
    <path class="cls-1" d="M70.67,46.5s5.99,47.69-13.74,45.42-15.03-45.42-15.03-45.42h28.78Z"/>
    <path class="cls-1" d="M144.74,48.5s5.99,47.69-13.74,45.42-15.03-45.42-15.03-45.42h28.78Z"/>
    <path class="cls-1" d="M214.74,48.5s5.99,47.69-13.74,45.42-15.03-45.42-15.03-45.42h28.78Z"/>
    <path class="cls-1" d="M282.74,48.5s5.99,47.69-13.74,45.42-15.03-45.42-15.03-45.42h28.78Z"/>
    <path class="cls-1" d="M348.74,48.5s5.99,47.69-13.74,45.42-15.03-45.42-15.03-45.42h28.78Z"/>
    <path class="cls-1" d="M414.74,48.5s5.99,47.69-13.74,45.42-15.03-45.42-15.03-45.42h28.78Z"/>
    <path class="cls-1" d="M480.74,46.5s5.99,47.69-13.74,45.42-15.03-45.42-15.03-45.42h28.78Z"/>
    <path class="cls-1" d="M543.74,49.5s5.99,47.69-13.74,45.42-15.03-45.42-15.03-45.42h28.78Z"/>
    <image width="560" height="7" transform="translate(0 45.5)" xlink:href="../raymond_janvier_vicky_ounissi_assil_tp2_site_web_design/Line 4.png"/>
  </g>
</svg>